<svg width="395" height="139" viewBox="0 0 395 139" fill="none" xmlns="http://www.w3.org/2000/svg">
<path d="M102.957 57H97.6836L87.418 40.1602V57H82.1445V31.4062H87.418L97.7012 48.2812V31.4062H102.957V57ZM106.688 47.3145C106.688 45.4277 107.051 43.7461 107.777 42.2695C108.504 40.793 109.547 39.6504 110.906 38.8418C112.277 38.0332 113.865 37.6289 115.67 37.6289C118.236 37.6289 120.328 38.4141 121.945 39.9844C123.574 41.5547 124.482 43.6875 124.67 46.3828L124.705 47.6836C124.705 50.6016 123.891 52.9453 122.262 54.7148C120.633 56.4727 118.447 57.3516 115.705 57.3516C112.963 57.3516 110.771 56.4727 109.131 54.7148C107.502 52.957 106.688 50.5664 106.688 47.543V47.3145ZM111.768 47.6836C111.768 49.4883 112.107 50.8711 112.787 51.832C113.467 52.7812 114.439 53.2559 115.705 53.2559C116.936 53.2559 117.896 52.7871 118.588 51.8496C119.279 50.9004 119.625 49.3887 119.625 47.3145C119.625 45.5449 119.279 44.1738 118.588 43.2012C117.896 42.2285 116.924 41.7422 115.67 41.7422C114.428 41.7422 113.467 42.2285 112.787 43.2012C112.107 44.1621 111.768 45.6562 111.768 47.6836ZM134.166 33.3047V37.9805H137.418V41.707H134.166V51.1992C134.166 51.9023 134.301 52.4062 134.57 52.7109C134.84 53.0156 135.355 53.168 136.117 53.168C136.68 53.168 137.178 53.127 137.611 53.0449V56.8945C136.615 57.1992 135.59 57.3516 134.535 57.3516C130.973 57.3516 129.156 55.5527 129.086 51.9551V41.707H126.309V37.9805H129.086V33.3047H134.166ZM149.252 57.3516C146.463 57.3516 144.189 56.4961 142.432 54.7852C140.686 53.0742 139.812 50.7949 139.812 47.9473V47.4551C139.812 45.5449 140.182 43.8398 140.92 42.3398C141.658 40.8281 142.701 39.668 144.049 38.8594C145.408 38.0391 146.955 37.6289 148.689 37.6289C151.291 37.6289 153.336 38.4492 154.824 40.0898C156.324 41.7305 157.074 44.0566 157.074 47.0684V49.1426H144.963C145.127 50.3848 145.619 51.3809 146.439 52.1309C147.271 52.8809 148.32 53.2559 149.586 53.2559C151.543 53.2559 153.072 52.5469 154.174 51.1289L156.67 53.9238C155.908 55.002 154.877 55.8457 153.576 56.4551C152.275 57.0527 150.834 57.3516 149.252 57.3516ZM148.672 41.7422C147.664 41.7422 146.844 42.082 146.211 42.7617C145.59 43.4414 145.191 44.4141 145.016 45.6797H152.082V45.2754C152.059 44.1504 151.754 43.2832 151.168 42.6738C150.582 42.0527 149.75 41.7422 148.672 41.7422ZM170.525 51.7441C170.525 51.123 170.215 50.6367 169.594 50.2852C168.984 49.9219 168 49.5996 166.641 49.3184C162.117 48.3691 159.855 46.4473 159.855 43.5527C159.855 41.8652 160.553 40.459 161.947 39.334C163.354 38.1973 165.188 37.6289 167.449 37.6289C169.863 37.6289 171.791 38.1973 173.232 39.334C174.686 40.4707 175.412 41.9473 175.412 43.7637H170.332C170.332 43.0371 170.098 42.4395 169.629 41.9707C169.16 41.4902 168.428 41.25 167.432 41.25C166.576 41.25 165.914 41.4434 165.445 41.8301C164.977 42.2168 164.742 42.709 164.742 43.3066C164.742 43.8691 165.006 44.3262 165.533 44.6777C166.072 45.0176 166.975 45.3164 168.24 45.5742C169.506 45.8203 170.572 46.1016 171.439 46.418C174.123 47.4023 175.465 49.1074 175.465 51.5332C175.465 53.2676 174.721 54.6738 173.232 55.752C171.744 56.8184 169.822 57.3516 167.467 57.3516C165.873 57.3516 164.455 57.0703 163.213 56.5078C161.982 55.9336 161.016 55.1543 160.312 54.1699C159.609 53.1738 159.258 52.1016 159.258 50.9531H164.074C164.121 51.8555 164.455 52.5469 165.076 53.0273C165.697 53.5078 166.529 53.748 167.572 53.748C168.545 53.748 169.277 53.5664 169.77 53.2031C170.273 52.8281 170.525 52.3418 170.525 51.7441ZM195.318 49.8105L198.834 37.9805H204.283L196.637 59.9531L196.215 60.9551C195.078 63.4395 193.203 64.6816 190.59 64.6816C189.852 64.6816 189.102 64.5703 188.34 64.3477V60.498L189.113 60.5156C190.074 60.5156 190.789 60.3691 191.258 60.0762C191.738 59.7832 192.113 59.2969 192.383 58.6172L192.98 57.0527L186.318 37.9805H191.785L195.318 49.8105ZM205.465 47.3145C205.465 45.4277 205.828 43.7461 206.555 42.2695C207.281 40.793 208.324 39.6504 209.684 38.8418C211.055 38.0332 212.643 37.6289 214.447 37.6289C217.014 37.6289 219.105 38.4141 220.723 39.9844C222.352 41.5547 223.26 43.6875 223.447 46.3828L223.482 47.6836C223.482 50.6016 222.668 52.9453 221.039 54.7148C219.41 56.4727 217.225 57.3516 214.482 57.3516C211.74 57.3516 209.549 56.4727 207.908 54.7148C206.279 52.957 205.465 50.5664 205.465 47.543V47.3145ZM210.545 47.6836C210.545 49.4883 210.885 50.8711 211.564 51.832C212.244 52.7812 213.217 53.2559 214.482 53.2559C215.713 53.2559 216.674 52.7871 217.365 51.8496C218.057 50.9004 218.402 49.3887 218.402 47.3145C218.402 45.5449 218.057 44.1738 217.365 43.2012C216.674 42.2285 215.701 41.7422 214.447 41.7422C213.205 41.7422 212.244 42.2285 211.564 43.2012C210.885 44.1621 210.545 45.6562 210.545 47.6836ZM238.252 55.0664C236.998 56.5898 235.264 57.3516 233.049 57.3516C231.01 57.3516 229.451 56.7656 228.373 55.5938C227.307 54.4219 226.762 52.7051 226.738 50.4434V37.9805H231.818V50.2676C231.818 52.248 232.721 53.2383 234.525 53.2383C236.248 53.2383 237.432 52.6406 238.076 51.4453V37.9805H243.174V57H238.393L238.252 55.0664ZM267.492 57C267.258 56.543 267.088 55.9746 266.982 55.2949C265.752 56.666 264.152 57.3516 262.184 57.3516C260.32 57.3516 258.773 56.8125 257.543 55.7344C256.324 54.6562 255.715 53.2969 255.715 51.6562C255.715 49.6406 256.459 48.0938 257.947 47.0156C259.447 45.9375 261.609 45.3926 264.434 45.3809H266.771V44.291C266.771 43.4121 266.543 42.709 266.086 42.1816C265.641 41.6543 264.932 41.3906 263.959 41.3906C263.104 41.3906 262.43 41.5957 261.938 42.0059C261.457 42.416 261.217 42.9785 261.217 43.6934H256.137C256.137 42.5918 256.477 41.5723 257.156 40.6348C257.836 39.6973 258.797 38.9648 260.039 38.4375C261.281 37.8984 262.676 37.6289 264.223 37.6289C266.566 37.6289 268.424 38.2207 269.795 39.4043C271.178 40.5762 271.869 42.2285 271.869 44.3613V52.6055C271.881 54.4102 272.133 55.7754 272.625 56.7012V57H267.492ZM263.291 53.4668C264.041 53.4668 264.732 53.3027 265.365 52.9746C265.998 52.6348 266.467 52.1836 266.771 51.6211V48.3516H264.873C262.33 48.3516 260.977 49.2305 260.812 50.9883L260.795 51.2871C260.795 51.9199 261.018 52.4414 261.463 52.8516C261.908 53.2617 262.518 53.4668 263.291 53.4668ZM275.23 47.3496C275.23 44.3848 275.893 42.0234 277.217 40.2656C278.553 38.5078 280.375 37.6289 282.684 37.6289C284.535 37.6289 286.064 38.3203 287.271 39.7031V30H292.369V57H287.781L287.535 54.9785C286.27 56.5605 284.641 57.3516 282.648 57.3516C280.41 57.3516 278.611 56.4727 277.252 54.7148C275.904 52.9453 275.23 50.4902 275.23 47.3496ZM280.311 47.7188C280.311 49.5 280.621 50.8652 281.242 51.8145C281.863 52.7637 282.766 53.2383 283.949 53.2383C285.52 53.2383 286.627 52.5762 287.271 51.252V43.7461C286.639 42.4219 285.543 41.7598 283.984 41.7598C281.535 41.7598 280.311 43.7461 280.311 47.7188ZM295.766 47.3496C295.766 44.3848 296.428 42.0234 297.752 40.2656C299.088 38.5078 300.91 37.6289 303.219 37.6289C305.07 37.6289 306.6 38.3203 307.807 39.7031V30H312.904V57H308.316L308.07 54.9785C306.805 56.5605 305.176 57.3516 303.184 57.3516C300.945 57.3516 299.146 56.4727 297.787 54.7148C296.439 52.9453 295.766 50.4902 295.766 47.3496ZM300.846 47.7188C300.846 49.5 301.156 50.8652 301.777 51.8145C302.398 52.7637 303.301 53.2383 304.484 53.2383C306.055 53.2383 307.162 52.5762 307.807 51.252V43.7461C307.174 42.4219 306.078 41.7598 304.52 41.7598C302.07 41.7598 300.846 43.7461 300.846 47.7188ZM112.895 105C112.66 104.543 112.49 103.975 112.385 103.295C111.154 104.666 109.555 105.352 107.586 105.352C105.723 105.352 104.176 104.812 102.945 103.734C101.727 102.656 101.117 101.297 101.117 99.6562C101.117 97.6406 101.861 96.0938 103.35 95.0156C104.85 93.9375 107.012 93.3926 109.836 93.3809H112.174V92.291C112.174 91.4121 111.945 90.709 111.488 90.1816C111.043 89.6543 110.334 89.3906 109.361 89.3906C108.506 89.3906 107.832 89.5957 107.34 90.0059C106.859 90.416 106.619 90.9785 106.619 91.6934H101.539C101.539 90.5918 101.879 89.5723 102.559 88.6348C103.238 87.6973 104.199 86.9648 105.441 86.4375C106.684 85.8984 108.078 85.6289 109.625 85.6289C111.969 85.6289 113.826 86.2207 115.197 87.4043C116.58 88.5762 117.271 90.2285 117.271 92.3613V100.605C117.283 102.41 117.535 103.775 118.027 104.701V105H112.895ZM108.693 101.467C109.443 101.467 110.135 101.303 110.768 100.975C111.4 100.635 111.869 100.184 112.174 99.6211V96.3516H110.275C107.732 96.3516 106.379 97.2305 106.215 98.9883L106.197 99.2871C106.197 99.9199 106.42 100.441 106.865 100.852C107.311 101.262 107.92 101.467 108.693 101.467ZM138.545 95.666C138.545 98.5957 137.877 100.945 136.541 102.715C135.217 104.473 133.424 105.352 131.162 105.352C129.24 105.352 127.688 104.684 126.504 103.348V112.312H121.424V85.9805H126.135L126.311 87.8438C127.541 86.3672 129.146 85.6289 131.127 85.6289C133.471 85.6289 135.293 86.4961 136.594 88.2305C137.895 89.9648 138.545 92.3555 138.545 95.4023V95.666ZM133.465 95.2969C133.465 93.5273 133.148 92.1621 132.516 91.2012C131.895 90.2402 130.986 89.7598 129.791 89.7598C128.197 89.7598 127.102 90.3691 126.504 91.5879V99.375C127.125 100.629 128.232 101.256 129.826 101.256C132.252 101.256 133.465 99.2695 133.465 95.2969ZM159.08 95.666C159.08 98.5957 158.412 100.945 157.076 102.715C155.752 104.473 153.959 105.352 151.697 105.352C149.775 105.352 148.223 104.684 147.039 103.348V112.312H141.959V85.9805H146.67L146.846 87.8438C148.076 86.3672 149.682 85.6289 151.662 85.6289C154.006 85.6289 155.828 86.4961 157.129 88.2305C158.43 89.9648 159.08 92.3555 159.08 95.4023V95.666ZM154 95.2969C154 93.5273 153.684 92.1621 153.051 91.2012C152.43 90.2402 151.521 89.7598 150.326 89.7598C148.732 89.7598 147.637 90.3691 147.039 91.5879V99.375C147.66 100.629 148.768 101.256 150.361 101.256C152.787 101.256 154 99.2695 154 95.2969ZM171.248 105.352C168.459 105.352 166.186 104.496 164.428 102.785C162.682 101.074 161.809 98.7949 161.809 95.9473V95.4551C161.809 93.5449 162.178 91.8398 162.916 90.3398C163.654 88.8281 164.697 87.668 166.045 86.8594C167.404 86.0391 168.951 85.6289 170.686 85.6289C173.287 85.6289 175.332 86.4492 176.82 88.0898C178.32 89.7305 179.07 92.0566 179.07 95.0684V97.1426H166.959C167.123 98.3848 167.615 99.3809 168.436 100.131C169.268 100.881 170.316 101.256 171.582 101.256C173.539 101.256 175.068 100.547 176.17 99.1289L178.666 101.924C177.904 103.002 176.873 103.846 175.572 104.455C174.271 105.053 172.83 105.352 171.248 105.352ZM170.668 89.7422C169.66 89.7422 168.84 90.082 168.207 90.7617C167.586 91.4414 167.188 92.4141 167.012 93.6797H174.078V93.2754C174.055 92.1504 173.75 91.2832 173.164 90.6738C172.578 90.0527 171.746 89.7422 170.668 89.7422ZM193.242 105C193.008 104.543 192.838 103.975 192.732 103.295C191.502 104.666 189.902 105.352 187.934 105.352C186.07 105.352 184.523 104.812 183.293 103.734C182.074 102.656 181.465 101.297 181.465 99.6562C181.465 97.6406 182.209 96.0938 183.697 95.0156C185.197 93.9375 187.359 93.3926 190.184 93.3809H192.521V92.291C192.521 91.4121 192.293 90.709 191.836 90.1816C191.391 89.6543 190.682 89.3906 189.709 89.3906C188.854 89.3906 188.18 89.5957 187.688 90.0059C187.207 90.416 186.967 90.9785 186.967 91.6934H181.887C181.887 90.5918 182.227 89.5723 182.906 88.6348C183.586 87.6973 184.547 86.9648 185.789 86.4375C187.031 85.8984 188.426 85.6289 189.973 85.6289C192.316 85.6289 194.174 86.2207 195.545 87.4043C196.928 88.5762 197.619 90.2285 197.619 92.3613V100.605C197.631 102.41 197.883 103.775 198.375 104.701V105H193.242ZM189.041 101.467C189.791 101.467 190.482 101.303 191.115 100.975C191.748 100.635 192.217 100.184 192.521 99.6211V96.3516H190.623C188.08 96.3516 186.727 97.2305 186.562 98.9883L186.545 99.2871C186.545 99.9199 186.768 100.441 187.213 100.852C187.658 101.262 188.268 101.467 189.041 101.467ZM212.459 90.7441C211.768 90.6504 211.158 90.6035 210.631 90.6035C208.709 90.6035 207.449 91.2539 206.852 92.5547V105H201.771V85.9805H206.57L206.711 88.248C207.73 86.502 209.143 85.6289 210.947 85.6289C211.51 85.6289 212.037 85.7051 212.529 85.8574L212.459 90.7441ZM229.342 88.0547C230.689 86.4375 232.383 85.6289 234.422 85.6289C238.547 85.6289 240.639 88.0254 240.697 92.8184V105H235.617V92.959C235.617 91.8691 235.383 91.0664 234.914 90.5508C234.445 90.0234 233.666 89.7598 232.576 89.7598C231.088 89.7598 230.01 90.334 229.342 91.4824V105H224.262V78H229.342V88.0547ZM253.533 105.352C250.744 105.352 248.471 104.496 246.713 102.785C244.967 101.074 244.094 98.7949 244.094 95.9473V95.4551C244.094 93.5449 244.463 91.8398 245.201 90.3398C245.939 88.8281 246.982 87.668 248.33 86.8594C249.689 86.0391 251.236 85.6289 252.971 85.6289C255.572 85.6289 257.617 86.4492 259.105 88.0898C260.605 89.7305 261.355 92.0566 261.355 95.0684V97.1426H249.244C249.408 98.3848 249.9 99.3809 250.721 100.131C251.553 100.881 252.602 101.256 253.867 101.256C255.824 101.256 257.354 100.547 258.455 99.1289L260.951 101.924C260.189 103.002 259.158 103.846 257.857 104.455C256.557 105.053 255.115 105.352 253.533 105.352ZM252.953 89.7422C251.945 89.7422 251.125 90.082 250.492 90.7617C249.871 91.4414 249.473 92.4141 249.297 93.6797H256.363V93.2754C256.34 92.1504 256.035 91.2832 255.449 90.6738C254.863 90.0527 254.031 89.7422 252.953 89.7422ZM275.193 90.7441C274.502 90.6504 273.893 90.6035 273.365 90.6035C271.443 90.6035 270.184 91.2539 269.586 92.5547V105H264.506V85.9805H269.305L269.445 88.248C270.465 86.502 271.877 85.6289 273.682 85.6289C274.244 85.6289 274.771 85.7051 275.264 85.8574L275.193 90.7441ZM286.307 105.352C283.518 105.352 281.244 104.496 279.486 102.785C277.74 101.074 276.867 98.7949 276.867 95.9473V95.4551C276.867 93.5449 277.236 91.8398 277.975 90.3398C278.713 88.8281 279.756 87.668 281.104 86.8594C282.463 86.0391 284.01 85.6289 285.744 85.6289C288.346 85.6289 290.391 86.4492 291.879 88.0898C293.379 89.7305 294.129 92.0566 294.129 95.0684V97.1426H282.018C282.182 98.3848 282.674 99.3809 283.494 100.131C284.326 100.881 285.375 101.256 286.641 101.256C288.598 101.256 290.127 100.547 291.229 99.1289L293.725 101.924C292.963 103.002 291.932 103.846 290.631 104.455C289.33 105.053 287.889 105.352 286.307 105.352ZM285.727 89.7422C284.719 89.7422 283.898 90.082 283.266 90.7617C282.645 91.4414 282.246 92.4141 282.07 93.6797H289.137V93.2754C289.113 92.1504 288.809 91.2832 288.223 90.6738C287.637 90.0527 286.805 89.7422 285.727 89.7422Z" fill="white"/>
<path d="M54.0391 138.734C45.7422 136.391 39.4844 132.523 35.2656 127.133C31.0938 121.789 29.0078 114.711 29.0078 105.898V91.9062C29.0078 80.5156 24.0391 74.8203 14.1016 74.8203V64.625C24.0391 64.625 29.0078 58.9531 29.0078 47.6094V32.9844C29.1016 24.4062 31.1875 17.4922 35.2656 12.2422C39.3906 6.94531 45.6484 3.10156 54.0391 0.710938L56.7109 8.79688C46.9141 11.9375 42.0156 20.1172 42.0156 33.3359V47.5391C42.0156 58.1797 38.1016 65.5859 30.2734 69.7578C38.1016 73.9766 42.0156 81.4531 42.0156 92.1875V106.672C42.1562 119.562 47.0547 127.555 56.7109 130.648L54.0391 138.734Z" fill="white"/>
<path d="M337.938 130.648C347.453 127.602 352.375 119.844 352.703 107.375V91.9062C352.703 81.0781 356.945 73.6953 365.43 69.7578C356.945 65.9141 352.703 58.5312 352.703 47.6094V33.3359C352.703 20.1172 347.805 11.9375 338.008 8.79688L340.68 0.710938C348.977 3.05469 355.211 6.875 359.383 12.1719C363.555 17.4219 365.664 24.3828 365.711 33.0547V47.8203C365.711 59.0234 370.68 64.625 380.617 64.625V74.8203C370.68 74.8203 365.711 80.5156 365.711 91.9062V106.109C365.711 114.922 363.578 121.977 359.312 127.273C355.094 132.57 348.883 136.391 340.68 138.734L337.938 130.648Z" fill="white"/>
</svg>
